<svg width="20" height="21" viewBox="0 0 20 21" fill="none" xmlns="http://www.w3.org/2000/svg">
<path d="M10 0C4.47719 0 0 4.70105 0 10.5C0 16.299 4.47719 21 10 21C15.5228 21 20 16.299 20 10.5C20 4.70105 15.5228 0 10 0ZM15.6163 10.1719C15.5731 8.34028 15.1744 6.60253 14.4872 5.03114C15.3159 4.6958 16.1025 4.27087 16.8356 3.76655C18.3431 5.45311 19.29 7.69617 19.3675 10.1719H15.6163ZM10.4166 20.3326C10.3822 20.3342 10.3472 20.3342 10.3125 20.3355V16.4177C11.3512 16.4463 12.3584 16.6084 13.3141 16.9001C12.5575 18.2244 11.5716 19.3869 10.4166 20.3326ZM13.9216 17.1088C14.635 17.3716 15.3159 17.705 15.96 18.099C14.7128 19.1786 13.1947 19.9244 11.5294 20.2115C12.4694 19.3138 13.2762 18.2674 13.9216 17.1088ZM6.68562 16.9001C7.64156 16.608 8.64875 16.4463 9.6875 16.4177V20.3352C9.65281 20.3339 9.61781 20.3339 9.58344 20.3323C8.42813 19.3869 7.4425 18.2244 6.68562 16.9001ZM8.47031 20.2112C6.805 19.9244 5.28687 19.1786 4.03969 18.0987C4.68406 17.705 5.36469 17.3713 6.07812 17.1088C6.72344 18.2674 7.53062 19.3138 8.47031 20.2112ZM0.632812 10.1719C0.710313 7.69617 1.65688 5.45311 3.16469 3.76655C3.89781 4.27055 4.68406 4.69547 5.51312 5.03114C4.82562 6.60253 4.42688 8.34028 4.38375 10.1719H0.632812ZM13.6156 4.65806C12.5703 5.00883 11.4613 5.20603 10.3125 5.23753V0.664453C10.3472 0.665766 10.3822 0.665766 10.4166 0.667406C11.7316 1.74366 12.8272 3.10177 13.6156 4.65806ZM11.5297 0.788813C13.3872 1.10906 15.0603 2.00156 16.38 3.28978C15.7 3.7462 14.975 4.13306 14.21 4.43789C13.5244 3.06009 12.6153 1.82503 11.5297 0.788813ZM9.6875 0.664453V5.23753C8.53844 5.20603 7.42938 5.00916 6.38438 4.65806C7.17281 3.10177 8.26844 1.74366 9.58344 0.667406C9.61781 0.665766 9.65281 0.665766 9.6875 0.664453ZM5.79031 4.43789C5.02531 4.13306 4.3 3.7462 3.62031 3.28978C4.94 2.00156 6.61281 1.10906 8.47062 0.788813C7.38469 1.82503 6.47563 3.06009 5.79031 4.43789ZM6.10375 5.25295C7.23562 5.64309 8.43875 5.86753 9.6875 5.90002V10.1719H5.00969C5.05312 8.41772 5.43844 6.75413 6.10375 5.25295ZM9.6875 10.8281V15.7618C8.53625 15.792 7.42344 15.98 6.37031 16.316C5.54125 14.6711 5.05875 12.8064 5.00969 10.8281H9.6875ZM10.3125 15.7618V10.8281H14.9903C14.9416 12.8064 14.4588 14.6711 13.6297 16.3163C12.5766 15.98 11.4637 15.792 10.3125 15.7618ZM10.3125 10.1719V5.89969C11.5612 5.8672 12.7644 5.64309 13.8962 5.25262C14.5616 6.7538 14.9469 8.41772 14.9903 10.1715L10.3125 10.1719ZM0.632812 10.8281H4.38375C4.43187 12.8799 4.9275 14.8135 5.77344 16.5273C4.99344 16.8223 4.25125 17.198 3.55188 17.6416C1.82094 15.9183 0.716875 13.5096 0.632812 10.8281ZM16.4481 17.642C15.7487 17.198 15.0066 16.8226 14.2266 16.5277C15.0725 14.8135 15.5681 12.8802 15.6163 10.8285H19.3672C19.2831 13.5096 18.1791 15.9183 16.4481 17.642Z" fill="#202020" stroke="#202020" stroke-width="0.00064"/>
</svg>
