<svg width="20" height="20" viewBox="0 0 20 20" fill="none" xmlns="http://www.w3.org/2000/svg">
<path d="M16.667 5.00033H13.3337V3.33366C13.3337 2.41699 12.5837 1.66699 11.667 1.66699H8.33366C7.41699 1.66699 6.66699 2.41699 6.66699 3.33366V5.00033H3.33366C2.41699 5.00033 1.66699 5.75033 1.66699 6.66699V16.667C1.66699 17.5837 2.41699 18.3337 3.33366 18.3337H16.667C17.5837 18.3337 18.3337 17.5837 18.3337 16.667V6.66699C18.3337 5.75033 17.5837 5.00033 16.667 5.00033ZM8.33366 3.33366H11.667V5.00033H8.33366V3.33366ZM16.667 16.667H3.33366V6.66699H16.667V16.667Z" fill="#3B3B3B"/>
<path d="M10.8337 8.33366H9.16699V10.8337H6.66699V12.5003H9.16699V15.0003H10.8337V12.5003H13.3337V10.8337H10.8337V8.33366Z" fill="#3B3B3B"/>
</svg>
