<svg width="21" height="16" viewBox="0 0 21 16" fill="none" xmlns="http://www.w3.org/2000/svg">
<path d="M9.80859 9.14062C9.80859 9.20693 9.83493 9.27052 9.88182 9.3174C9.9287 9.36429 9.99229 9.39062 10.0586 9.39062C10.1249 9.39062 10.1885 9.36429 10.2354 9.3174C10.2823 9.27052 10.3086 9.20693 10.3086 9.14062C10.3086 9.07432 10.2823 9.01073 10.2354 8.96385C10.1885 8.91696 10.1249 8.89062 10.0586 8.89062C9.99229 8.89062 9.9287 8.91696 9.88182 8.96385C9.83493 9.01073 9.80859 9.07432 9.80859 9.14062Z" fill="black" stroke="#202020" stroke-width="0.0625"/>
<path d="M12.2592 10.183H7.67662L1.01367 5.12054V5.5692L7.55385 10.5402H12.3753L19.0494 5.5558V5.10938L12.2592 10.183Z" fill="black" stroke="#202020"/>
<path d="M14.317 2.14062V0.03125H5.74554V2.14062H0.03125V15.6451H20.0312V2.14062H14.317ZM6.72768 1.01339H13.3348V2.13839H6.72768V1.01339ZM19.0491 14.6629H1.01339V13.5737H19.0491V14.6629ZM19.0491 13.2143H1.01339V3.12277H19.0491V13.2143Z" fill="#202020" stroke="#202020" stroke-width="0.0625"/>
</svg>
