<svg width="20" height="20" viewBox="0 0 20 20" fill="none" xmlns="http://www.w3.org/2000/svg">
<g clip-path="url(#clip0_2666_2788)">
<path d="M4.40156 11.4854V7.20541C4.40156 7.09492 4.49107 7.00541 4.60156 7.00541H7.40156C7.51205 7.00541 7.60156 7.09492 7.60156 7.20541V11.4854C7.60156 11.7063 7.78064 11.8854 8.00156 11.8854C8.22248 11.8854 8.40156 11.7063 8.40156 11.4854V7.20541C8.40156 6.65311 7.95387 6.20541 7.40156 6.20541H4.60156C4.04926 6.20541 3.60156 6.65311 3.60156 7.20541V11.4854C3.60156 11.7063 3.78064 11.8854 4.00156 11.8854C4.22248 11.8854 4.40156 11.7063 4.40156 11.4854ZM15.705 9.20547L15.905 6.40547H12.9052L13.1053 9.20547H15.705ZM16.4835 9.53418C16.4642 9.7985 16.2421 10.0055 15.9773 10.0055H12.8329C12.5679 10.0055 12.345 9.79803 12.3267 9.53418L12.0838 6.13418C12.0628 5.84738 12.2883 5.60547 12.5755 5.60547H16.2347C16.5219 5.60547 16.7474 5.8474 16.7265 6.13357L16.4835 9.53418Z" fill="#202020"/>
<path d="M13.1248 9.47799L13.1247 9.4767M15.9286 6.07594L15.9285 6.07688M4.40156 11.4854V7.20541C4.40156 7.09492 4.49107 7.00541 4.60156 7.00541H7.40156C7.51205 7.00541 7.60156 7.09492 7.60156 7.20541V11.4854C7.60156 11.7063 7.78064 11.8854 8.00156 11.8854C8.22248 11.8854 8.40156 11.7063 8.40156 11.4854V7.20541C8.40156 6.65311 7.95387 6.20541 7.40156 6.20541H4.60156C4.04926 6.20541 3.60156 6.65311 3.60156 7.20541V11.4854C3.60156 11.7063 3.78064 11.8854 4.00156 11.8854C4.22248 11.8854 4.40156 11.7063 4.40156 11.4854ZM15.705 9.20547L15.905 6.40547H12.9052L13.1053 9.20547H15.705ZM16.4835 9.53418C16.4642 9.7985 16.2421 10.0055 15.9773 10.0055H12.8329C12.5679 10.0055 12.345 9.79803 12.3267 9.53418L12.0838 6.13418C12.0628 5.84738 12.2883 5.60547 12.5755 5.60547H16.2347C16.5219 5.60547 16.7474 5.8474 16.7265 6.13357L16.4835 9.53418Z" stroke="#202020" stroke-width="0.0625"/>
<path d="M8.20078 19.1852C8.31127 19.1852 8.40078 19.0957 8.40078 18.9852V12.3852C8.40078 12.2747 8.31127 12.1852 8.20078 12.1852H4.00078C3.7799 12.1852 3.60078 12.3643 3.60078 12.5852V18.9852C3.60078 19.0957 3.69029 19.1852 3.80078 19.1852H8.20078ZM8.20078 19.9852H3.80078C3.24848 19.9852 2.80078 19.5375 2.80078 18.9852V12.5852C2.80078 11.9225 3.33807 11.3852 4.00078 11.3852H8.20078C8.75309 11.3852 9.20078 11.8329 9.20078 12.3852V18.9852C9.20078 19.5375 8.75309 19.9852 8.20078 19.9852ZM15.6808 9.60521V18.7852C15.6808 19.0061 15.5017 19.1852 15.2808 19.1852H13.5208C13.2999 19.1852 13.1208 19.0061 13.1208 18.7852V9.40521C13.1208 9.1843 12.9417 9.00521 12.7208 9.00521C12.4999 9.00521 12.3208 9.1843 12.3208 9.40521V18.7852C12.3208 19.4479 12.8581 19.9852 13.5208 19.9852H15.2808C15.9435 19.9852 16.4808 19.4479 16.4808 18.7852V9.60521C16.4808 9.3843 16.3017 9.20521 16.0808 9.20521C15.8599 9.20521 15.6808 9.3843 15.6808 9.60521ZM6.60078 6.60521H7.40078V0.765214C7.40078 0.124374 6.83012 -0.198751 6.28066 0.13078L5.30937 0.713632C4.90611 0.955487 4.6008 1.49473 4.6008 1.96521V6.60521H5.4008V1.96521C5.4008 1.77576 5.55863 1.49697 5.72092 1.39965L6.6008 0.871659L6.60078 6.60521ZM12.2288 0.805214H16.5736L15.9237 6.15699C15.8971 6.37629 16.0533 6.57566 16.2726 6.60228C16.4919 6.6289 16.6912 6.47271 16.7179 6.25342L17.4008 0.629393V0.605194C17.4008 0.273886 17.1321 0.00519416 16.8008 0.00519416H12.0008C11.6695 0.00519416 11.4008 0.273886 11.4008 0.605194V0.630018L12.1038 6.27465C12.1311 6.49387 12.331 6.64945 12.5502 6.62215C12.7694 6.59484 12.925 6.395 12.8977 6.17578L12.2288 0.805214Z" fill="#202020" stroke="#202020" stroke-width="0.0625"/>
</g>
<defs>
<clipPath id="clip0_2666_2788">
<rect width="20" height="20" fill="white"/>
</clipPath>
</defs>
</svg>
