<svg width="20" height="20" viewBox="0 0 20 20" fill="none" xmlns="http://www.w3.org/2000/svg">
<path d="M13.7049 18.5375L13.6581 18.5496C13.586 18.568 13.5424 18.6414 13.5609 18.7135C13.5765 18.7744 13.6313 18.8149 13.6914 18.8149C13.7024 18.8149 13.7136 18.8136 13.7248 18.8107L13.7722 18.7985C13.8443 18.7799 13.8877 18.7064 13.8691 18.6343C13.8505 18.5623 13.7769 18.5189 13.7049 18.5375Z" fill="#202020" stroke="#202020" stroke-width="0.125"/>
<path d="M16.5926 5.25032C15.8238 3.66364 14.5009 1.96895 14.4876 1.95204C14.4805 1.94306 14.4723 1.9356 14.4637 1.92888C13.3928 0.929736 12.5855 0.895634 12.5516 0.894619C12.4918 0.892509 12.4376 0.931259 12.4194 0.988486C12.351 1.20384 12.2616 1.44786 12.1539 1.71431L9.99978 1.89985L7.81923 1.71454C7.72755 1.46243 7.6472 1.21935 7.5813 0.991845C7.56423 0.932861 7.50923 0.892392 7.44806 0.894619C7.414 0.895595 6.60208 0.929658 5.52693 1.93681C5.52345 1.94005 5.52064 1.94372 5.51759 1.94724C5.51615 1.94895 5.51439 1.95024 5.51302 1.95204C5.49974 1.96895 4.17673 3.6636 3.40802 5.25032C3.38509 5.29767 3.39177 5.35403 3.42517 5.39466C3.44622 5.42028 3.96372 6.02978 6.17509 7.08474L6.47259 9.58544C6.47283 9.58747 6.47357 9.58931 6.47388 9.59126V10.6547L3.93833 17.7042C3.91767 17.7616 3.93818 17.8258 3.98837 17.8606C4.06888 17.9164 5.8172 19.1038 8.6297 19.1038C8.92966 19.1038 9.24177 19.0903 9.56521 19.0605C9.6231 19.0552 9.67107 19.0133 9.68412 18.9566L9.99974 17.5899L10.315 18.9566C10.3281 19.0133 10.376 19.0552 10.434 19.0605C11.235 19.1344 12.0357 19.1122 12.8139 18.9944C12.8875 18.9833 12.9382 18.9146 12.927 18.8409C12.9159 18.7674 12.8472 18.7167 12.7736 18.7279C12.0483 18.8377 11.3027 18.8621 10.5556 18.8006L10.1311 16.9603C10.1171 16.8992 10.0626 16.8558 9.99986 16.8558C9.93712 16.8558 9.88267 16.8991 9.86857 16.9603L9.44361 18.8006C6.61013 19.0331 4.65314 17.9538 4.22849 17.6941L6.70123 10.8192H7.68103L7.35443 12.1156C7.33626 12.1877 7.38001 12.261 7.4522 12.2792C7.46326 12.2819 7.47431 12.2833 7.48525 12.2833C7.54552 12.2833 7.6004 12.2425 7.61583 12.1813L7.959 10.8192H12.0403L12.3835 12.1813C12.3989 12.2425 12.4538 12.2833 12.5141 12.2833C12.5249 12.2833 12.5361 12.2819 12.5471 12.2792C12.6193 12.2609 12.6631 12.1877 12.6449 12.1156L12.3183 10.8192H13.2981L15.771 17.6943C15.6033 17.7975 15.197 18.0295 14.5966 18.2554C14.527 18.2817 14.4917 18.3594 14.5179 18.429C14.5383 18.4831 14.5896 18.5163 14.6441 18.5163C14.6599 18.5163 14.6759 18.5136 14.6915 18.5077C15.5263 18.1934 15.9915 17.8739 16.0109 17.8605C16.061 17.8257 16.0815 17.7616 16.0609 17.7041L13.5218 10.6447V9.57759L13.8244 7.08528C16.0367 6.02997 16.5544 5.42028 16.5754 5.39466C16.6088 5.35403 16.6155 5.29767 16.5926 5.25032ZM9.49494 2.12751C9.21263 2.29286 8.88673 2.54985 8.78572 2.8927C8.73236 3.07313 8.78083 3.25681 8.91537 3.38403C8.99673 3.46099 9.09826 3.50587 9.20271 3.51528C9.1756 3.91911 9.23513 4.34782 9.38025 4.79247C9.39884 4.84938 9.45162 4.88548 9.50834 4.88548C9.5222 4.88548 9.5363 4.88333 9.55017 4.87876C9.62091 4.85567 9.65955 4.77958 9.63646 4.70884C9.49216 4.26685 9.44029 3.84481 9.47958 3.45228C9.50443 3.43763 9.52845 3.4206 9.55146 3.4011C9.72908 3.25048 9.87701 2.98091 9.99966 2.58462C10.122 2.98087 10.2699 3.25032 10.4472 3.40075C10.4519 3.40478 10.4567 3.40806 10.4615 3.41177C10.4797 3.7347 10.4459 4.09415 10.3592 4.48231C10.343 4.55493 10.3888 4.62696 10.4614 4.64313C10.4713 4.6454 10.4812 4.64645 10.4909 4.64645C10.5526 4.64645 10.6083 4.60376 10.6223 4.54099C10.704 4.17497 10.7413 3.8311 10.7351 3.51513C10.7419 3.51544 10.7486 3.51642 10.7553 3.51642C10.8599 3.51642 10.9645 3.48118 11.0517 3.41208C11.2096 3.28712 11.2717 3.08802 11.2139 2.89263C11.1122 2.54868 10.7865 2.29188 10.5045 2.12685L12.0373 1.99485C11.3663 3.56817 10.2871 5.46028 9.93443 6.06661C9.03763 4.49895 8.36201 3.13083 7.92369 1.99388L9.49494 2.12751ZM9.52345 2.42575C9.40466 2.63329 9.29095 2.90661 9.23416 3.24692C9.18623 3.24438 9.13876 3.22435 9.10056 3.18817C9.07208 3.16126 9.00962 3.08606 9.04427 2.96899C9.11001 2.74571 9.31564 2.56153 9.52345 2.42575ZM10.4911 2.43692C10.6987 2.57673 10.8933 2.75899 10.9555 2.96915C10.9818 3.05813 10.9552 3.14477 10.8844 3.20087C10.8441 3.23282 10.7839 3.25602 10.7188 3.24321C10.682 2.90013 10.5924 2.63595 10.4911 2.43692ZM6.16665 6.78185C4.50736 5.97954 3.8722 5.45251 3.69224 5.28286C4.31134 4.03407 5.25955 2.73427 5.59896 2.2836C5.83544 2.77169 6.41958 4.2745 6.16665 6.78185ZM13.2522 10.5497H6.74345V9.70423H7.47716C7.55162 9.70423 7.61193 9.64392 7.61193 9.5695C7.61193 9.49505 7.55162 9.43474 7.47716 9.43474H6.72611L6.42537 6.90669C6.73466 4.05431 6.00626 2.46142 5.7897 2.06134C6.27568 1.6231 6.69247 1.40341 6.96189 1.29544C7.13544 1.22591 7.27048 1.19298 7.35517 1.17751C7.42345 1.40329 7.50412 1.64188 7.5954 1.88829C7.59552 1.88864 7.59568 1.88899 7.5958 1.88931C7.5963 1.89063 7.59673 1.89196 7.59732 1.89329C8.05466 3.12872 8.80095 4.64548 9.81576 6.40157C10.6263 7.80509 11.3873 8.97427 11.6924 9.4347H9.31896C9.24455 9.4347 9.18419 9.49501 9.18419 9.56946C9.18419 9.64388 9.24455 9.70419 9.31896 9.70419H13.2521L13.2522 10.5497ZM13.2676 9.43474H12.0162C11.8285 9.15481 10.9948 7.89849 10.0894 6.33603C10.3313 5.92427 11.6475 3.65899 12.3724 1.89278C12.479 1.63313 12.5694 1.39274 12.6416 1.17661C12.8658 1.21649 13.4567 1.38188 14.2096 2.06134C13.9932 2.4613 13.265 4.05407 13.5743 6.90669L13.2676 9.43474ZM13.8331 6.78224C13.5798 4.27259 14.1649 2.76927 14.4008 2.28251C14.7395 2.73212 15.6887 4.03302 16.3083 5.28274C16.1276 5.45313 15.492 5.9802 13.8331 6.78224Z" fill="#202020" stroke="#202020" stroke-width="0.5"/>
<path d="M8.42824 9.43555H8.375C8.30059 9.43555 8.24023 9.49586 8.24023 9.57031C8.24023 9.64473 8.30059 9.70504 8.375 9.70504H8.42824C8.50266 9.70504 8.56301 9.64473 8.56301 9.57031C8.56301 9.49586 8.5027 9.43555 8.42824 9.43555Z" fill="#202020" stroke="#202020" stroke-width="0.125"/>
</svg>
