<svg width="20" height="18" viewBox="0 0 20 18" fill="none" xmlns="http://www.w3.org/2000/svg">
<mask id="mask0_3751_1267" style="mask-type:luminance" maskUnits="userSpaceOnUse" x="0" y="0" width="20" height="18">
<path d="M20 0H0V17.8589H20V0Z" fill="white"/>
</mask>
<g mask="url(#mask0_3751_1267)">
<path d="M9.3852 3.54741C9.04882 3.89656 8.76509 4.16115 8.51414 4.45719C7.77305 5.33828 7.17491 6.34409 6.74415 7.43354C5.61651 10.2437 4.78937 13.1615 4.05171 16.1093C3.98671 16.3692 3.97267 16.6447 3.89756 16.9005C3.84918 17.0887 3.74422 17.255 3.59868 17.3738C3.45314 17.4928 3.275 17.5581 3.09139 17.5593C2.90795 17.5656 2.72752 17.5088 2.57685 17.3976C2.42617 17.2863 2.3133 17.1262 2.25491 16.9414C2.20442 16.7965 2.16651 16.6471 2.14171 16.4949C1.79723 14.4801 1.45473 12.465 1.11417 10.4496C0.781294 8.47275 0.438119 6.49774 0.132801 4.51607C0.0363127 3.88978 0.0429953 3.24493 0.0117188 2.60801C0.0120287 2.45338 0.0236421 2.299 0.0464178 2.14627C0.0512623 2.01884 0.0981864 1.89724 0.178981 1.80292C0.259774 1.70862 0.369256 1.6476 0.488207 1.63052C0.724376 1.58158 0.957456 1.74941 1.05905 2.06002C1.12165 2.28177 1.1714 2.50739 1.208 2.73561C1.6097 4.71606 2.0112 6.69659 2.41248 8.67721C2.64695 9.82818 2.88491 10.9783 3.1264 12.1277C3.165 12.3125 3.21617 12.4944 3.2914 12.7981C3.62267 11.7321 3.91087 10.7787 4.21533 9.83114C4.70843 8.29596 5.2347 6.77547 6.00256 5.36337C6.6196 4.2195 7.43124 3.20734 8.39617 2.37841C8.67925 2.1354 8.95243 1.87926 9.23765 1.63906C9.77892 1.18321 10.3476 1.30097 10.61 1.98108C10.7821 2.46845 10.9078 2.97293 10.9853 3.48693C11.4787 6.25903 11.957 9.03417 12.4418 11.8081C12.4716 11.9776 12.5116 12.1463 12.5749 12.4494C12.6589 12.1489 12.7108 11.9737 12.7569 11.7968C13.473 9.05474 14.3072 6.36324 15.6799 3.89406C16.303 2.77313 16.994 1.70757 17.895 0.81959C18.1947 0.541245 18.5244 0.301452 18.8769 0.105141C19.1977 -0.0854302 19.5172 0.0126728 19.7767 0.277392C20.0078 0.513403 20.0595 0.884913 19.8736 1.24389C19.7243 1.55349 19.5335 1.83833 19.3073 2.08949C17.4456 4.01565 16.3398 6.41285 15.4768 8.96238C14.651 11.4022 14.0899 13.9213 13.5141 16.4357C13.4658 16.6613 13.4043 16.8834 13.3299 17.1009C13.2659 17.3051 13.1433 17.483 12.9795 17.6094C12.8156 17.736 12.6185 17.8048 12.416 17.8064C12.2033 17.814 11.9944 17.7458 11.8225 17.6127C11.6506 17.4795 11.5256 17.2891 11.4675 17.0716C11.3116 16.5565 11.1906 16.0303 11.1049 15.497C10.485 11.6285 9.76297 7.77616 9.45117 3.85814C9.44702 3.80028 9.42797 3.74477 9.3852 3.54741Z" fill="#202020" stroke="#202020" stroke-width="0.00064"/>
</g>
</svg>
