<svg width="21" height="21" viewBox="0 0 21 21" fill="none" xmlns="http://www.w3.org/2000/svg">
<path d="M13.6642 2.37245C13.6642 2.37245 13.4088 2.4363 12.9873 2.54896C12.9149 2.33865 12.8042 2.09829 12.6595 1.83915C12.1827 1.0317 11.4718 0.596054 10.6288 0.596054C10.5735 0.596054 10.5182 0.596054 10.4458 0.611077C10.4288 0.577276 10.3905 0.562254 10.3734 0.532209C10.0073 0.175428 9.53051 0.0139369 8.96431 0.0327149C7.86597 0.0665152 6.76763 0.757545 5.89066 2.00065C5.26912 2.87194 4.79232 3.96858 4.66461 4.82485C3.40024 5.16286 2.52327 5.40697 2.50625 5.42199C1.86768 5.5985 1.84639 5.61728 1.77402 6.14682C1.71868 6.54867 0.0371094 17.9169 0.0371094 17.9169L13.8728 20.0312V2.35743C13.7578 2.35743 13.7025 2.37245 13.6642 2.37245ZM10.4628 3.24375C9.73059 3.43904 8.926 3.66437 8.13843 3.87469C8.3598 3.11606 8.79828 2.35743 9.30914 1.85793C9.50922 1.68142 9.78594 1.47111 10.0967 1.33966C10.4075 1.92178 10.4798 2.71421 10.4628 3.24375ZM8.96431 0.693699C9.21974 0.693699 9.44111 0.742523 9.62417 0.840168C9.33042 0.967858 9.03668 1.17817 8.76423 1.42228C8.07032 2.08327 7.53817 3.11606 7.3168 4.10378C6.65695 4.28029 5.99709 4.46056 5.39684 4.62205C5.79701 3.06723 7.27849 0.727499 8.96431 0.693699ZM6.84 9.57568C6.91237 10.6085 10.0073 10.8338 10.1904 13.2712C10.3181 15.194 9.03668 16.501 7.18909 16.5986C4.95835 16.7263 3.7323 15.5658 3.7323 15.5658L4.2091 13.7895C4.2091 13.7895 5.43515 14.6119 6.42281 14.5481C7.06137 14.5143 7.29977 14.0486 7.28275 13.7256C7.19335 12.3698 4.66461 12.4487 4.50284 10.2216C4.3581 8.3476 5.74592 6.45854 8.82383 6.28202C10.0116 6.21818 10.6161 6.47731 10.6161 6.47731L9.92217 8.80203C9.92217 8.80203 9.1346 8.47904 8.20228 8.54289C6.84 8.62176 6.82298 9.38039 6.84 9.57568ZM11.195 3.05221C11.195 2.56774 11.1227 1.87296 10.8672 1.29084C11.7102 1.43731 12.1103 2.25978 12.2934 2.75928C11.9656 2.8419 11.5995 2.93954 11.195 3.05221ZM14.29 20.005L20.0371 18.7468C20.0371 18.7468 17.568 4.00613 17.5467 3.90849C17.5297 3.81084 17.436 3.747 17.3466 3.747C17.2572 3.747 15.6437 3.7132 15.6437 3.7132C15.6437 3.7132 14.6561 2.87194 14.29 2.54896V20.005Z" fill="#202020" stroke="#202020" stroke-width="0.064"/>
</svg>
